<?xml version="1.0" encoding="UTF-8"?>
<!DOCTYPE svg PUBLIC "-//W3C//DTD SVG 1.1//EN" "http://www.w3.org/Graphics/SVG/1.1/DTD/svg11.dtd">
<!-- Creator: CorelDRAW 2021 (64-Bit) -->
<svg xmlns="http://www.w3.org/2000/svg" xml:space="preserve" width="964px" height="496px" version="1.1" style="shape-rendering:geometricPrecision; text-rendering:geometricPrecision; image-rendering:optimizeQuality; fill-rule:evenodd; clip-rule:evenodd"
viewBox="0 0 962.21 494.37"
 xmlns:xlink="http://www.w3.org/1999/xlink"
 xmlns:xodm="http://www.corel.com/coreldraw/odm/2003">
 <defs>
  <style type="text/css">
   <![CDATA[
    .fil2 {fill:white}
    .fil8 {fill:#A31800;fill-rule:nonzero}
    .fil9 {fill:white;fill-rule:nonzero}
    .fil4 {fill:url(#id0)}
    .fil5 {fill:url(#id1)}
    .fil6 {fill:url(#id2)}
    .fil7 {fill:url(#id3)}
    .fil0 {fill:url(#id4)}
    .fil1 {fill:url(#id5)}
    .fil3 {fill:url(#id6);fill-rule:nonzero}
   ]]>
  </style>
  <radialGradient id="id0" gradientUnits="userSpaceOnUse" gradientTransform="matrix(0.470753 1.55076 -0.355161 1.98482 374 -1082)" cx="551.58" cy="230.42" r="0.69" fx="551.58" fy="230.42">
   <stop offset="0" style="stop-opacity:1; stop-color:#FFA600"/>
   <stop offset="1" style="stop-opacity:1; stop-color:#D11F00"/>
  </radialGradient>
  <radialGradient id="id1" gradientUnits="userSpaceOnUse" gradientTransform="matrix(1.83419 0.913355 -1.38297 1.1683 -108 -404)" xlink:href="#id0" cx="411.1" cy="169.99" r="0.62" fx="411.1" fy="169.99">
  </radialGradient>
  <radialGradient id="id2" gradientUnits="userSpaceOnUse" gradientTransform="matrix(1.83066 1.45491 -1.38115 1.86215 -223 -933)" xlink:href="#id0" cx="543.42" cy="165.68" r="0.1" fx="543.42" fy="165.68">
  </radialGradient>
  <radialGradient id="id3" gradientUnits="userSpaceOnUse" gradientTransform="matrix(1.83608 1.26907 -1.38523 1.62428 -233 -610)" xlink:href="#id0" cx="434.16" cy="94.19" r="88.42" fx="434.16" fy="94.19">
  </radialGradient>
  <radialGradient id="id4" gradientUnits="userSpaceOnUse" gradientTransform="matrix(1.83607 0.558934 -1.38523 0.715384 -13 -103)" cx="259.8" cy="147.48" r="307.91" fx="259.8" fy="147.48">
   <stop offset="0" style="stop-opacity:1; stop-color:white"/>
   <stop offset="1" style="stop-opacity:1; stop-color:#FEFEFE"/>
  </radialGradient>
  <radialGradient id="id5" gradientUnits="userSpaceOnUse" gradientTransform="matrix(1.83607 0.531075 -1.38523 0.679726 0 -90)" xlink:href="#id0" cx="265.84" cy="160.63" r="405.44" fx="265.84" fy="160.63">
  </radialGradient>
  <radialGradient id="id6" gradientUnits="userSpaceOnUse" gradientTransform="matrix(1.53138 1.55037 -1.15536 1.98433 -223 -701)" xlink:href="#id0" cx="444.84" cy="11.21" r="89.94" fx="444.84" fy="11.21">
  </radialGradient>
 </defs>
 <g id="Layer_x0020_1">
  <metadata id="CorelCorpID_0Corel-Layer"/>
  <g id="_2835731692304">
   <g>
    <path class="fil0" d="M9.8 222.59c153.62,-40.46 311.61,-75.01 471.2,-75.11 159.68,-0.1 317.8,34.4 471.43,75.11l9.78 2.59 0 204.68c0,35.55 -28.97,64.51 -64.51,64.51l-833.19 0c-35.55,0 -64.51,-28.97 -64.51,-64.51 0,-64.86 0,-129.71 0,-194.56l0 -10.13 9.8 -2.58z"/>
   </g>
   <path class="fil1" d="M13.15 235.3c155.92,-41.06 311.7,-74.58 467.86,-74.67 156.15,-0.09 312.03,33.32 468.05,74.67l0 194.56c0,28.29 -23.07,51.36 -51.36,51.36l-833.19 0c-28.29,0 -51.36,-23.07 -51.36,-51.36 0,-78.82 0,-82.44 0,-194.56z"/>
   <path class="fil2" d="M406.21 100.68c-0.25,-0.43 -0.48,-0.88 -0.68,-1.36l-17.93 -42.8c-1.73,-4.13 -0.95,-8.6 2.07,-11.91 3.01,-3.3 7.4,-4.48 11.66,-3.13 2.39,0.75 4.77,1.55 7.12,2.41 5.31,1.95 11.19,4.2 13.21,9.98 -0.2,-1.38 -0.14,-2.82 0.2,-4.26l4.69 -19.91c0.95,-4.05 3.8,-7.05 7.79,-8.21 3.99,-1.16 8,-0.15 10.97,2.75l11.58 11.31c0.08,-0.15 0.16,-0.3 0.24,-0.45l16.15 -29.3c2.06,-3.73 5.74,-5.86 10,-5.8 4.27,0.07 7.88,2.33 9.82,6.12l14.89 29.17 19.39 -12.08c3.44,-2.15 7.43,-2.32 11.04,-0.48 3.61,1.85 5.82,5.19 6.09,9.23l1.14 16.69c0.55,-0.33 1.13,-0.61 1.74,-0.84l19.75 -7.5c4.35,-1.66 9.02,-0.57 12.19,2.84 3.18,3.41 3.93,8.14 1.97,12.37l-20.45 44.11c1.2,1.48 2.32,3.03 3.36,4.63 6.82,10.51 9.02,22.27 4.69,34.26 -1.95,5.39 -4.07,11.43 -3.74,17.24 0.17,3.05 0.74,6.07 1.91,8.9 0.59,1.42 0.88,2.88 0.88,4.32 3.73,3.07 7.14,6.31 10,9.49 0.15,0.15 0.28,0.29 0.42,0.46 2.22,2.57 4.35,5.22 6.26,8.04 6.14,9 8.77,19.18 6.64,29.93 2.01,2.45 3.01,5.71 2.84,9.22 0.06,10.03 -4.57,18.59 -12.2,24.94 -8.31,6.91 -18.36,10.05 -29.05,10.62 -3.48,0.19 -6.96,0.17 -10.44,-0.05 -0.2,-0.01 -0.41,-0.02 -0.61,-0.04 -3.18,-0.21 -6.35,-0.56 -9.5,-1.05 -1.79,-0.19 -3.58,-0.37 -5.37,-0.53 -0.04,-0.01 -0.07,-0.01 -0.11,-0.01 -1.46,-0.14 -2.92,-0.26 -4.39,-0.38 -11.66,-0.94 -25.16,6.07 -35.11,11.48 -2.47,1.35 -5.04,1.71 -7.79,1.1l0 0c-1.9,-0.38 -3.78,-0.89 -5.61,-1.54 -0.85,-0.3 -1.68,-0.64 -2.41,-0.96 -0.31,-0.13 -0.61,-0.27 -0.91,-0.41 -0.26,-0.12 -0.53,-0.25 -0.8,-0.38 -0.18,-0.1 -0.37,-0.18 -0.56,-0.27 -0.77,-0.33 -1.56,-0.58 -2.39,-0.74 -0.12,-0.02 -0.22,-0.04 -0.34,-0.07 -0.29,-0.06 -0.6,-0.11 -0.9,-0.16 -0.79,-0.13 -1.46,-0.32 -2.21,-0.61 -7.33,-2.87 -14.75,-6.53 -21.06,-11.28 -2.4,-1.81 -7.38,-1.22 -10.16,-1.03 -9.27,0.64 -17.1,0.73 -25.55,-3.98 -0.47,-0.26 -0.86,-0.51 -1.29,-0.84 -3.45,-2.59 -6.69,-5.49 -9.65,-8.63 -0.24,-0.24 -0.51,-0.54 -0.79,-0.85 -0.32,-0.32 -0.61,-0.67 -0.91,-1.05 -0.26,-0.35 -0.54,-0.67 -0.83,-0.99 -0.3,-0.32 -0.6,-0.64 -0.91,-0.95 -7,-6.88 -12.3,-15.24 -14.41,-24.89 -0.08,-0.32 -0.14,-0.63 -0.19,-0.94 -0.43,-2.19 -0.69,-4.41 -0.77,-6.65 0,-0.2 0,-0.37 0,-0.58 0.06,-3.45 0.73,-6.88 1.88,-10.24 -4.23,-5.41 -7.81,-10.51 -9.6,-17.31 -2.9,-10.97 0.16,-20.96 7.43,-29.43 5.49,-6.39 11.91,-11.19 18.6,-16.19 1.73,-1.29 2.52,-2.59 2.95,-4.71 1.81,-8.86 4.33,-17.59 8.06,-25.84z"/>
   <path class="fil3" d="M571.26 50.79l-21.65 46.67c-20.16,-7.75 -39.76,-11.27 -57.56,-12.3 -0.86,-5.16 -5.14,-10.03 -10.29,-10.03 -5.11,0 -9.36,4.78 -10.27,9.88 -26.59,1.12 -46.93,7.06 -55.47,9.97l-17.93 -42.81c0.38,0.12 12.79,3.99 13.15,5.51 0.35,1.53 3.55,9.79 10.66,12.25 7.12,2.45 14.94,-5.52 14.94,-10.41 0,-4.9 -3.92,-7.35 -3.92,-7.35l4.69 -19.91 13.8 13.48c0,0 -5.68,9.49 -2.48,12.85 3.19,3.37 19.56,6.43 21.51,1.23 1.96,-5.2 0.92,-15.94 -3.35,-19.31l16.15 -29.3 15.12 29.63c0,0 -10.85,8.41 -3.38,17.45 7.47,9.04 24.18,3.06 22.75,-3.37 -1.42,-6.44 -5.15,-9.18 -5.15,-9.18l20.87 -13.02 6.5 21.78c0,0 -13.86,4.4 -10.12,11.14 3.73,6.74 19.91,8.57 21.68,3.82 1.79,-4.74 0,-11.17 0,-11.17l19.75 -7.5zm-84.05 160c-1.95,0.06 -3.78,0.66 -5.63,1.19 -0.79,0.22 -1.43,-0.3 -2.15,-0.44 -1.29,-0.26 -2.53,-0.74 -3.88,-0.76 -0.24,0 -0.58,-0.01 -0.59,-0.31 -0.01,-0.34 0.35,-0.3 0.58,-0.3 1.49,-0.03 2.99,-0.11 4.43,0.38 0.83,0.28 1.6,0.25 2.42,-0.01 1.61,-0.51 3.28,-0.43 4.93,-0.36 0.22,0.01 0.42,0.11 0.7,0.19 -0.26,0.36 -0.54,0.41 -0.81,0.42zm-2.54 -15.16c0.57,-1.22 1.49,-2.06 2.6,-2.66 0.83,-0.45 1.65,-0.94 2.64,-1.08 0.5,-0.07 0.57,0.05 0.55,0.48 -0.04,1.02 -0.94,1.32 -1.58,1.73 -1.19,0.78 -2.65,0.97 -3.93,1.56 -0.06,0.03 -0.16,-0.01 -0.28,-0.03zm-6.93 -0.02c-1.66,-0.62 -3.41,-0.92 -4.84,-1.98 -0.48,-0.35 -0.88,-0.73 -0.93,-1.39 -0.03,-0.39 0.09,-0.43 0.39,-0.39 1.6,0.26 2.97,0.96 4.16,2.07 0.53,0.49 0.94,1.02 1.22,1.69zm50.23 -40.96c-6.62,-2.27 -13.03,-1.92 -19.49,-0.26 -4.4,1.13 -8.52,2.95 -12.37,5.28 -1.54,0.92 -2.5,0.45 -3.47,-0.34 -1.32,-1.08 -0.26,-2.18 0.37,-3.14 3.08,-4.68 7.54,-6.71 13.06,-7.14 6.4,-0.51 12.74,-0.99 18.63,2.26 1.36,0.74 2.57,1.79 3.27,3.34zm-55.13 14.35c0,0 -3.2,-3.35 -9.61,-3 -6.4,0.35 -11.11,0.15 -14.91,-1.26 -3.81,-1.4 -12.97,-4.8 -12.97,-4.8l4.71 5.15 -4.21 0.3 6.21 2.52 -2 0.39 4.95 0.9c0,0 -4.2,0.6 -4.35,0.6 -0.15,0 6.76,0 6.76,0l-2.66 1.95c0,0 3.51,-0.6 5.96,0 2.45,0.6 7.56,0.65 12.56,-1.85 3.46,-1.55 9.56,-0.9 9.56,-0.9zm22.07 1.14c0,0 3.2,-3.35 9.61,-3 6.41,0.35 11.11,0.15 14.92,-1.25 3.8,-1.4 12.96,-4.81 12.96,-4.81l-4.71 5.16 4.21 0.3 -6.21 2.51 2 0.39 -4.95 0.9c0,0 4.2,0.6 4.35,0.6 0.15,0 -6.75,0 -6.75,0l2.65 1.95c0,0 -3.5,-0.6 -5.96,0 -2.45,0.61 -7.56,0.66 -12.56,-1.85 -3.45,-1.55 -9.56,-0.9 -9.56,-0.9zm-56.67 -16.11c0.71,-2.49 2.58,-2.62 4.08,-3.31 3.21,-1.48 6.46,-2.75 9.9,-3.7 7.64,-2.1 13.89,0.75 19.87,4.89 0.87,0.6 2.02,1.48 1.48,2.62 -0.78,1.61 -1.88,3.1 -3.08,4.45 -0.41,0.47 -0.95,-0.35 -1.4,-0.86 -4.03,-4.56 -9.05,-6.85 -15.23,-6.97 -5.34,-0.11 -10.52,0.31 -15.62,2.88zm58.6 55.46c-2.04,-0.53 -3.9,-1.5 -5.71,-2.55 -1.5,-0.87 -2.94,-1.86 -4.82,-1.59 -1.02,0.14 -1.95,0.55 -2.89,0.9 -0.9,0.33 -1.78,1.05 -2.8,0.62 -0.71,-0.29 -1.44,-0.53 -2.15,-0.84 -0.93,-0.4 -1.92,-0.79 -3.01,-0.72 -1.4,0.08 -2.61,0.66 -3.73,1.38 -2.61,1.67 -5.47,2.68 -8.45,3.56 0.32,0.57 0.99,0.51 1.39,0.88 1.04,0.95 2.26,1.66 3.37,2.53 2.02,1.56 4.13,3.03 6.46,4.14 0.89,0.42 1.82,0.94 2.9,0.96 1.88,0.02 3.76,0.1 5.64,0.07 0.82,-0.01 1.64,0.05 2.46,-0.18 2.27,-0.64 4.27,-1.82 6.18,-3.13 1.56,-1.07 3.07,-2.18 4.61,-3.27 0.93,-0.65 1.87,-1.29 2.93,-2.04 -0.94,-0.06 -1.61,-0.51 -2.38,-0.72zm-8 -122.48c0,-3.91 -3.17,-8.52 -7.09,-8.52 -3.91,0 -7.08,4.61 -7.08,8.52 0,3.92 3.17,8.53 7.08,8.53 3.92,0 7.09,-4.61 7.09,-8.53z"/>
   <polygon class="fil4" points="551.47,232.01 551.88,230.42 "/>
   <polygon class="fil5" points="410.71,170.84 412.15,169.99 "/>
   <path class="fil6" d="M543.37 165.68l0.22 0.22c-0.02,-0.01 -0.3,-0.15 -0.22,-0.22z"/>
   <path class="fil7" d="M551.47 232.01c-0.18,8.33 -7.76,13.07 -18.52,9.68l-8.01 -3.05c6.07,0 10.82,0.92 15.39,-0.05 5.36,-1.13 7.47,-4.13 11.14,-6.58l0.41 -1.59 -0.41 1.59zm-83.89 -137.82l4.06 0c6.41,0.71 4.55,5.69 11.83,4.31 3.72,-0.71 4.51,-3.67 7.64,-4.26l0.27 -0.05 6.14 0c12.59,0.94 36.42,5.89 43.8,7.95 9.95,2.78 9.6,1.69 14.44,9.14 2.55,3.91 5.57,11.78 4.28,18.75 -3.04,16.42 -9.03,14.48 -3.41,38.6 -4.37,-0.37 -6.82,-2.21 -11.79,-2.21l8.11 5.15c9.13,6.06 13.67,10.38 20.81,18.99 7.68,9.27 8.91,18.84 5.26,30.68 -1.15,3.73 -3.23,5.81 -3.96,8.56 3.57,-0.3 5.17,-2.78 5.89,-5.9l2.21 0c0,13.7 -7.38,20.84 -19.41,24.81 -6.72,2.22 -11.96,1.68 -20.39,1.73 -19.9,0.12 -24.67,-7.52 -54.04,7.11 -8.34,4.16 -5.62,5.22 -15.44,1.19 -3.06,-1.25 -5.3,-1.51 -8.34,-2.7 -8.03,-3.15 -18.12,-10.41 -20.98,-11.45 -12.42,-4.49 -24.22,5.12 -37,-7.22 -11.21,-10.84 -25.28,-25.75 -16.96,-43.16 5.81,-12.18 18.41,-20.84 20.11,-23.37l1.44 -0.85 -1.44 0.85c-3.94,0.92 -9.8,4.8 -12.7,7.19 -2.17,1.79 -3.57,2.78 -5.55,4.77 -1.58,1.58 -3.28,4.03 -4.6,4.99 -6.45,-9.64 -14.44,-18.9 -3.12,-32.61 8.9,-10.76 20.56,-14.94 23.52,-23.64 1.44,-4.21 5.1,-21.92 8.34,-27.04 2.75,-4.35 38.5,-9.59 50.98,-10.31zm51.47 32.43c7.69,1.79 14,25.18 14,31.69 0,17.73 -4.47,37.89 -14.63,51.7 -5.13,6.98 -9.57,11.51 -16.21,16.95 -3.77,3.08 -17.99,12.42 -21.49,12.42 -6.89,0 -26.77,-18.36 -32.61,-24.14 -2.38,-2.35 -3.34,-3.84 -5.52,-6.27 -14.66,-16.26 -14.03,-50.76 -1.23,-70.13 3.36,-5.09 9.31,-11.54 9.88,-13.69 -2.34,-0.2 -4.27,-1.03 -6.06,-1.31 -2.57,-0.38 -5.32,-0.17 -7.94,-0.17 6.17,-8.42 35.45,-3.48 46.54,-1.58 9.93,1.71 20.74,2.99 30.12,-1.35 6.3,-2.92 6.6,-5.75 8.83,-7.39 0,8.54 -2.37,7.61 -3.68,13.27zm24.32 39.06l0.22 0.22c-0.02,-0.01 -0.3,-0.15 -0.22,-0.22zm-7.37 12.53c0,-4.37 -0.11,-8.28 3.68,-11.06 1.11,13.37 16.69,20.46 12.53,38.33 -1.95,-2.81 -2.26,-7.25 -7.59,-13.79 -3.02,-3.69 -8.62,-8.79 -8.62,-13.48zm-126.76 36.11c-1.57,-10.06 -0.43,-11.98 5.47,-21.79 2.28,-3.78 6.94,-10.67 7.06,-15.8 2.23,0.6 2.38,1.23 3.2,3.43 3.49,9.32 -1.64,13.18 -7.12,19.92 -3.22,3.95 -4.28,5.9 -6.37,10.59 -1.23,2.79 -0.04,2.04 -2.24,3.65z"/>
   <path class="fil8" d="M222.79 430.24l0 -0.94c-1.88,-2.25 -5.25,-8.06 -9,-15.74l-9.94 -21c-4.87,-10.31 -8.06,-14.99 -14.24,-17.8 12.37,-2.82 23.62,-17.44 23.62,-34.68 0,-23.43 -19.68,-38.61 -47.43,-38.61l-14.43 0c-9.93,0 -29.8,2.43 -38.8,5.62l0 105.16c0,11.99 8.06,20.43 21.93,20.43l13.68 0 0 -48.55c2.07,0.19 3.94,0.37 5.63,0.56 8.43,1.13 11.99,3.19 17.05,14.25l9.56 20.99c3.75,8.44 11.25,13.68 23.25,13.68 7.68,0 14.81,-1.12 19.12,-3.37zm-60.17 -100.66c10.31,0 14.99,5.44 14.99,14.81 0,7.31 -5.06,15 -15.18,15 -5.44,0 -9.94,0 -14.25,-0.57l0 -28.49c2.63,-0.37 5.63,-0.75 7.13,-0.75l7.31 0zm163.08 57.74l0 -15.94c0,-30.36 -18.56,-44.8 -47.05,-44.8 -29.43,0 -42.74,12.75 -42.74,25.5l0 12.55 0.94 0c7.31,-6.74 14.43,-11.24 33.74,-11.24 14.06,0 20.62,2.06 20.62,10.49l0 4.32 -5.07 0c-37.49,0 -53.98,11.62 -53.98,34.49 0,23.43 24.18,32.8 44.05,32.8 37.49,0 49.49,-10.69 49.49,-48.17zm-33.74 10.68c0,9.37 -5.63,12.56 -12,12.56 -9.94,0 -14.06,-3.38 -14.06,-9.94 0,-6.93 5.44,-10.31 18.93,-10.31l7.13 0 0 7.69zm92.41 -91.85c0,-9.75 -8.44,-17.62 -18.75,-17.62 -10.31,0 -18.74,7.87 -18.74,17.62 0,9.75 8.43,17.62 18.74,17.62 10.31,0 18.75,-7.87 18.75,-17.62zm-0.57 116.59l0 -66.17c0,-13.68 -6.74,-23.8 -24.55,-23.8l-10.5 0 0 88.47c0,17.25 -7.31,21.18 -21.93,21.93l-3.94 0.19 0 10.5c0,8.62 8.06,14.06 18.19,14.06 28.67,0 42.73,-18.18 42.73,-45.18zm175.83 7.5l0 -0.94c-1.88,-2.25 -5.25,-8.06 -9,-15.74l-9.93 -21c-4.88,-10.31 -8.06,-14.99 -14.25,-17.8 12.37,-2.82 23.62,-17.44 23.62,-34.68 0,-23.43 -19.68,-38.61 -47.43,-38.61l-14.43 0c-9.93,0 -29.8,2.43 -38.8,5.62l0 105.16c0,11.99 8.06,20.43 21.93,20.43l13.68 0 0 -48.55c2.07,0.19 3.94,0.37 5.63,0.56 8.43,1.13 11.99,3.19 17.05,14.25l9.56 20.99c3.75,8.44 11.25,13.68 23.25,13.68 7.68,0 14.81,-1.12 19.12,-3.37zm-60.17 -100.66c10.31,0 14.99,5.44 14.99,14.81 0,7.31 -5.06,15 -15.18,15 -5.44,0 -9.93,0 -14.25,-0.57l0 -28.49c2.63,-0.37 5.63,-0.75 7.13,-0.75l7.31 0zm163.08 57.74l0 -15.94c0,-30.36 -18.56,-44.8 -47.05,-44.8 -29.43,0 -42.74,12.75 -42.74,25.5l0 12.55 0.94 0c7.31,-6.74 14.43,-11.24 33.74,-11.24 14.06,0 20.62,2.06 20.62,10.49l0 4.32 -5.07 0c-37.48,0 -53.98,11.62 -53.98,34.49 0,23.43 24.18,32.8 44.05,32.8 37.49,0 49.49,-10.69 49.49,-48.17zm-33.74 10.68c0,9.37 -5.63,12.56 -12,12.56 -9.94,0 -14.06,-3.38 -14.06,-9.94 0,-6.93 5.44,-10.31 18.93,-10.31l7.13 0 0 7.69zm155.76 34.68l0 -56.24c0,-30.55 -14.81,-49.86 -51.36,-49.86 -32.8,0 -52.48,19.31 -52.48,48.93l0 36.17c0,15 8.43,21 23.62,21l11.99 0 0 -57.74c0,-12.56 5.63,-19.49 15.94,-19.49 11.99,0 16.68,6.19 16.68,20.06l0 36.17c0,15.75 4.87,21 20.62,21l14.99 0zm57.74 -126.53c0,-9.75 -8.25,-17.62 -18.56,-17.62 -10.31,0 -18.75,7.87 -18.75,17.62 0,9.75 8.44,17.62 18.75,17.62 10.31,0 18.56,-7.87 18.56,-17.62zm18.74 111.53l0 -10.5 -4.31 0c-9.93,0 -14.25,-2.81 -14.25,-11.99l0 -37.87c0,-18.74 -6.56,-24.55 -26.8,-24.55l-8.81 0 0 67.67c0,24.36 14.81,33.74 33.74,33.74 11.06,0 20.43,-4.13 20.43,-16.5z"/>
   <path class="fil9" d="M216.39 424.65l0 -0.94c-1.87,-2.24 -5.25,-8.06 -9,-15.74l-9.93 -21c-4.87,-10.3 -8.06,-14.99 -14.25,-17.8 12.38,-2.81 23.62,-17.44 23.62,-34.68 0,-23.43 -19.68,-38.61 -47.42,-38.61l-14.43 0c-9.94,0 -29.81,2.43 -38.81,5.62l0 105.16c0,11.99 8.06,20.43 21.94,20.43l13.68 0 0 -48.55c2.06,0.19 3.94,0.37 5.62,0.56 8.44,1.13 12,3.19 17.06,14.25l9.56 20.99c3.75,8.44 11.25,13.69 23.24,13.69 7.69,0 14.81,-1.13 19.12,-3.38zm-60.17 -100.66c10.31,0 15,5.44 15,14.81 0,7.31 -5.06,15 -15.19,15 -5.43,0 -9.93,0 -14.24,-0.56l0 -28.5c2.62,-0.37 5.62,-0.75 7.12,-0.75l7.31 0zm163.08 57.74l0 -15.94c0,-30.36 -18.56,-44.8 -47.05,-44.8 -29.43,0 -42.74,12.75 -42.74,25.5l0 12.56 0.94 0c7.31,-6.75 14.44,-11.25 33.74,-11.25 14.06,0 20.62,2.06 20.62,10.5l0 4.31 -5.06 0c-37.49,0 -53.98,11.62 -53.98,34.49 0,23.43 24.18,32.8 44.04,32.8 37.49,0 49.49,-10.68 49.49,-48.17zm-33.74 10.68c0,9.37 -5.62,12.56 -12,12.56 -9.93,0 -14.06,-3.37 -14.06,-9.94 0,-6.93 5.44,-10.3 18.94,-10.3l7.12 0 0 7.68zm92.41 -91.85c0,-9.74 -8.43,-17.62 -18.74,-17.62 -10.31,0 -18.75,7.88 -18.75,17.62 0,9.75 8.44,17.62 18.75,17.62 10.31,0 18.74,-7.87 18.74,-17.62zm-0.56 116.59l0 -66.16c0,-13.69 -6.75,-23.81 -24.56,-23.81l-10.49 0 0 88.47c0,17.25 -7.31,21.19 -21.94,21.94l-3.93 0.18 0 10.5c0,8.62 8.06,14.06 18.18,14.06 28.68,0 42.74,-18.18 42.74,-45.18zm175.82 7.5l0 -0.94c-1.87,-2.24 -5.25,-8.06 -9,-15.74l-9.93 -21c-4.87,-10.3 -8.06,-14.99 -14.24,-17.8 12.37,-2.81 23.61,-17.44 23.61,-34.68 0,-23.43 -19.68,-38.61 -47.42,-38.61l-14.43 0c-9.94,0 -29.81,2.43 -38.81,5.62l0 105.16c0,11.99 8.07,20.43 21.94,20.43l13.68 0 0 -48.55c2.06,0.19 3.94,0.37 5.62,0.56 8.44,1.13 12,3.19 17.06,14.25l9.56 20.99c3.75,8.44 11.25,13.69 23.24,13.69 7.69,0 14.81,-1.13 19.12,-3.38zm-60.17 -100.66c10.31,0 15,5.44 15,14.81 0,7.31 -5.06,15 -15.18,15 -5.44,0 -9.94,0 -14.25,-0.56l0 -28.5c2.62,-0.37 5.62,-0.75 7.12,-0.75l7.31 0zm163.08 57.74l0 -15.94c0,-30.36 -18.56,-44.8 -47.05,-44.8 -29.43,0 -42.74,12.75 -42.74,25.5l0 12.56 0.94 0c7.31,-6.75 14.44,-11.25 33.74,-11.25 14.06,0 20.62,2.06 20.62,10.5l0 4.31 -5.06 0c-37.49,0 -53.98,11.62 -53.98,34.49 0,23.43 24.18,32.8 44.04,32.8 37.49,0 49.49,-10.68 49.49,-48.17zm-33.74 10.68c0,9.37 -5.62,12.56 -12,12.56 -9.93,0 -14.05,-3.37 -14.05,-9.94 0,-6.93 5.43,-10.3 18.93,-10.3l7.12 0 0 7.68zm155.77 34.68l0 -56.24c0,-30.55 -14.81,-49.86 -51.36,-49.86 -32.8,0 -52.49,19.31 -52.49,48.93l0 36.17c0,15 8.44,21 23.62,21l12 0 0 -57.74c0,-12.55 5.62,-19.49 15.93,-19.49 12,0 16.68,6.19 16.68,20.06l0 36.17c0,15.75 4.88,21 20.62,21l15 0zm57.73 -126.53c0,-9.74 -8.25,-17.62 -18.55,-17.62 -10.31,0 -18.75,7.88 -18.75,17.62 0,9.75 8.44,17.62 18.75,17.62 10.3,0 18.55,-7.87 18.55,-17.62zm18.75 111.53l0 -10.49 -4.31 0c-9.94,0 -14.25,-2.82 -14.25,-12l0 -37.87c0,-18.74 -6.56,-24.55 -26.81,-24.55l-8.81 0 0 67.67c0,24.37 14.81,33.74 33.74,33.74 11.06,0 20.44,-4.13 20.44,-16.5z"/>
  </g>
 </g>
</svg>
